<mxfile host="app.diagrams.net" modified="2023-07-12T15:39:24.491Z" agent="Mozilla/5.0 (X11; Linux x86_64) AppleWebKit/537.36 (KHTML, like Gecko) Chrome/114.0.0.0 Safari/537.36" etag="CwAvYOb8krd-NOp2yyWP" version="21.6.2" type="github">
  <diagram name="Page-1" id="81SrWjyl8eu5nSyKgQhO">
    <mxGraphModel dx="3116" dy="774" grid="1" gridSize="10" guides="1" tooltips="1" connect="1" arrows="1" fold="1" page="1" pageScale="1" pageWidth="850" pageHeight="1100" math="0" shadow="0">
      <root>
        <mxCell id="0" />
        <mxCell id="1" parent="0" />
        <mxCell id="wKr13HxwPm08-R8J08jK-1" value="CodeBuddy" style="swimlane;whiteSpace=wrap;html=1;" vertex="1" parent="1">
          <mxGeometry x="-950" y="120" width="1240" height="890" as="geometry" />
        </mxCell>
        <mxCell id="wKr13HxwPm08-R8J08jK-2" value="&lt;font style=&quot;font-size: 10px;&quot;&gt;Authentication&lt;/font&gt;" style="ellipse;whiteSpace=wrap;html=1;" vertex="1" parent="wKr13HxwPm08-R8J08jK-1">
          <mxGeometry x="790" y="295" width="120" height="40" as="geometry" />
        </mxCell>
        <mxCell id="wKr13HxwPm08-R8J08jK-3" style="edgeStyle=orthogonalEdgeStyle;rounded=0;orthogonalLoop=1;jettySize=auto;html=1;entryX=1;entryY=0.5;entryDx=0;entryDy=0;dashed=1;" edge="1" parent="wKr13HxwPm08-R8J08jK-1" source="wKr13HxwPm08-R8J08jK-5" target="wKr13HxwPm08-R8J08jK-2">
          <mxGeometry relative="1" as="geometry" />
        </mxCell>
        <mxCell id="wKr13HxwPm08-R8J08jK-4" value="&amp;lt;&amp;lt;extend&amp;gt;&amp;gt;" style="edgeLabel;html=1;align=center;verticalAlign=middle;resizable=0;points=[];" vertex="1" connectable="0" parent="wKr13HxwPm08-R8J08jK-3">
          <mxGeometry x="0.3355" y="-2" relative="1" as="geometry">
            <mxPoint x="30" y="2" as="offset" />
          </mxGeometry>
        </mxCell>
        <mxCell id="wKr13HxwPm08-R8J08jK-5" value="&lt;font style=&quot;font-size: 10px;&quot;&gt;Authentication&lt;br&gt;errors&lt;/font&gt;" style="ellipse;whiteSpace=wrap;html=1;" vertex="1" parent="wKr13HxwPm08-R8J08jK-1">
          <mxGeometry x="1030" y="295" width="120" height="40" as="geometry" />
        </mxCell>
        <mxCell id="wKr13HxwPm08-R8J08jK-6" style="edgeStyle=orthogonalEdgeStyle;rounded=0;orthogonalLoop=1;jettySize=auto;html=1;entryX=0;entryY=0.5;entryDx=0;entryDy=0;dashed=1;" edge="1" parent="wKr13HxwPm08-R8J08jK-1" source="wKr13HxwPm08-R8J08jK-8" target="wKr13HxwPm08-R8J08jK-2">
          <mxGeometry relative="1" as="geometry" />
        </mxCell>
        <mxCell id="wKr13HxwPm08-R8J08jK-7" value="&amp;lt;&amp;lt;include&amp;gt;&amp;gt;" style="edgeLabel;html=1;align=center;verticalAlign=middle;resizable=0;points=[];" vertex="1" connectable="0" parent="wKr13HxwPm08-R8J08jK-6">
          <mxGeometry x="-0.4912" y="-2" relative="1" as="geometry">
            <mxPoint x="17" y="-2" as="offset" />
          </mxGeometry>
        </mxCell>
        <mxCell id="wKr13HxwPm08-R8J08jK-8" value="&lt;span style=&quot;font-size: 10px;&quot;&gt;Create Project&lt;/span&gt;" style="ellipse;whiteSpace=wrap;html=1;" vertex="1" parent="wKr13HxwPm08-R8J08jK-1">
          <mxGeometry x="580" y="295" width="120" height="40" as="geometry" />
        </mxCell>
        <mxCell id="wKr13HxwPm08-R8J08jK-9" style="edgeStyle=orthogonalEdgeStyle;rounded=0;orthogonalLoop=1;jettySize=auto;html=1;entryX=0.5;entryY=0;entryDx=0;entryDy=0;dashed=1;" edge="1" parent="wKr13HxwPm08-R8J08jK-1" source="wKr13HxwPm08-R8J08jK-11" target="wKr13HxwPm08-R8J08jK-8">
          <mxGeometry relative="1" as="geometry" />
        </mxCell>
        <mxCell id="wKr13HxwPm08-R8J08jK-10" value="&amp;lt;&amp;lt;include&amp;gt;&amp;gt;" style="edgeLabel;html=1;align=center;verticalAlign=middle;resizable=0;points=[];" vertex="1" connectable="0" parent="wKr13HxwPm08-R8J08jK-9">
          <mxGeometry x="-0.5501" y="-1" relative="1" as="geometry">
            <mxPoint as="offset" />
          </mxGeometry>
        </mxCell>
        <mxCell id="wKr13HxwPm08-R8J08jK-11" value="&lt;span style=&quot;font-size: 10px;&quot;&gt;manage text&lt;/span&gt;" style="ellipse;whiteSpace=wrap;html=1;" vertex="1" parent="wKr13HxwPm08-R8J08jK-1">
          <mxGeometry x="320" y="165" width="120" height="40" as="geometry" />
        </mxCell>
        <mxCell id="wKr13HxwPm08-R8J08jK-12" style="edgeStyle=orthogonalEdgeStyle;rounded=0;orthogonalLoop=1;jettySize=auto;html=1;entryX=0.5;entryY=1;entryDx=0;entryDy=0;dashed=1;" edge="1" parent="wKr13HxwPm08-R8J08jK-1" source="wKr13HxwPm08-R8J08jK-14" target="wKr13HxwPm08-R8J08jK-8">
          <mxGeometry relative="1" as="geometry" />
        </mxCell>
        <mxCell id="wKr13HxwPm08-R8J08jK-13" value="&amp;lt;&amp;lt;include&amp;gt;&amp;gt;" style="edgeLabel;html=1;align=center;verticalAlign=middle;resizable=0;points=[];" vertex="1" connectable="0" parent="wKr13HxwPm08-R8J08jK-12">
          <mxGeometry x="-0.5504" relative="1" as="geometry">
            <mxPoint as="offset" />
          </mxGeometry>
        </mxCell>
        <mxCell id="wKr13HxwPm08-R8J08jK-14" value="&lt;span style=&quot;font-size: 10px;&quot;&gt;manage code&lt;br&gt;&amp;nbsp;snippets&lt;/span&gt;" style="ellipse;whiteSpace=wrap;html=1;" vertex="1" parent="wKr13HxwPm08-R8J08jK-1">
          <mxGeometry x="320" y="355" width="120" height="40" as="geometry" />
        </mxCell>
        <mxCell id="wKr13HxwPm08-R8J08jK-15" style="edgeStyle=orthogonalEdgeStyle;rounded=0;orthogonalLoop=1;jettySize=auto;html=1;entryX=0.5;entryY=0;entryDx=0;entryDy=0;dashed=1;" edge="1" parent="wKr13HxwPm08-R8J08jK-1" source="wKr13HxwPm08-R8J08jK-17" target="wKr13HxwPm08-R8J08jK-8">
          <mxGeometry relative="1" as="geometry" />
        </mxCell>
        <mxCell id="wKr13HxwPm08-R8J08jK-16" value="&amp;lt;&amp;lt;include&amp;gt;&amp;gt;" style="edgeLabel;html=1;align=center;verticalAlign=middle;resizable=0;points=[];" vertex="1" connectable="0" parent="wKr13HxwPm08-R8J08jK-15">
          <mxGeometry x="-0.4364" relative="1" as="geometry">
            <mxPoint as="offset" />
          </mxGeometry>
        </mxCell>
        <mxCell id="wKr13HxwPm08-R8J08jK-17" value="&lt;span style=&quot;font-size: 10px;&quot;&gt;manage images&lt;/span&gt;" style="ellipse;whiteSpace=wrap;html=1;" vertex="1" parent="wKr13HxwPm08-R8J08jK-1">
          <mxGeometry x="320" y="235" width="120" height="40" as="geometry" />
        </mxCell>
        <mxCell id="wKr13HxwPm08-R8J08jK-18" style="edgeStyle=orthogonalEdgeStyle;rounded=0;orthogonalLoop=1;jettySize=auto;html=1;entryX=0;entryY=0.5;entryDx=0;entryDy=0;dashed=1;" edge="1" parent="wKr13HxwPm08-R8J08jK-1" source="wKr13HxwPm08-R8J08jK-20" target="wKr13HxwPm08-R8J08jK-8">
          <mxGeometry relative="1" as="geometry" />
        </mxCell>
        <mxCell id="wKr13HxwPm08-R8J08jK-19" value="&amp;lt;&amp;lt;include&amp;gt;&amp;gt;" style="edgeLabel;html=1;align=center;verticalAlign=middle;resizable=0;points=[];" vertex="1" connectable="0" parent="wKr13HxwPm08-R8J08jK-18">
          <mxGeometry x="-0.1917" relative="1" as="geometry">
            <mxPoint as="offset" />
          </mxGeometry>
        </mxCell>
        <mxCell id="wKr13HxwPm08-R8J08jK-20" value="&lt;span style=&quot;font-size: 10px;&quot;&gt;manage files&lt;/span&gt;" style="ellipse;whiteSpace=wrap;html=1;" vertex="1" parent="wKr13HxwPm08-R8J08jK-1">
          <mxGeometry x="320" y="295" width="120" height="40" as="geometry" />
        </mxCell>
        <mxCell id="wKr13HxwPm08-R8J08jK-21" style="edgeStyle=orthogonalEdgeStyle;rounded=0;orthogonalLoop=1;jettySize=auto;html=1;entryX=0.5;entryY=1;entryDx=0;entryDy=0;dashed=1;" edge="1" parent="wKr13HxwPm08-R8J08jK-1" source="wKr13HxwPm08-R8J08jK-23" target="wKr13HxwPm08-R8J08jK-8">
          <mxGeometry relative="1" as="geometry" />
        </mxCell>
        <mxCell id="wKr13HxwPm08-R8J08jK-22" value="&amp;lt;&amp;lt;include&amp;gt;&amp;gt;" style="edgeLabel;html=1;align=center;verticalAlign=middle;resizable=0;points=[];" vertex="1" connectable="0" parent="wKr13HxwPm08-R8J08jK-21">
          <mxGeometry x="-0.661" y="2" relative="1" as="geometry">
            <mxPoint as="offset" />
          </mxGeometry>
        </mxCell>
        <mxCell id="wKr13HxwPm08-R8J08jK-23" value="&lt;span style=&quot;font-size: 10px;&quot;&gt;Invite user&lt;/span&gt;" style="ellipse;whiteSpace=wrap;html=1;" vertex="1" parent="wKr13HxwPm08-R8J08jK-1">
          <mxGeometry x="320" y="425" width="120" height="40" as="geometry" />
        </mxCell>
        <mxCell id="wKr13HxwPm08-R8J08jK-24" style="edgeStyle=orthogonalEdgeStyle;rounded=0;orthogonalLoop=1;jettySize=auto;html=1;entryX=0.5;entryY=1;entryDx=0;entryDy=0;dashed=1;" edge="1" parent="wKr13HxwPm08-R8J08jK-1" source="wKr13HxwPm08-R8J08jK-26" target="wKr13HxwPm08-R8J08jK-8">
          <mxGeometry relative="1" as="geometry" />
        </mxCell>
        <mxCell id="wKr13HxwPm08-R8J08jK-25" value="&amp;lt;&amp;lt;include&amp;gt;&amp;gt;" style="edgeLabel;html=1;align=center;verticalAlign=middle;resizable=0;points=[];" vertex="1" connectable="0" parent="wKr13HxwPm08-R8J08jK-24">
          <mxGeometry x="-0.7231" y="-1" relative="1" as="geometry">
            <mxPoint as="offset" />
          </mxGeometry>
        </mxCell>
        <mxCell id="wKr13HxwPm08-R8J08jK-26" value="&lt;span style=&quot;font-size: 10px;&quot;&gt;create &lt;br&gt;applications&lt;/span&gt;" style="ellipse;whiteSpace=wrap;html=1;" vertex="1" parent="wKr13HxwPm08-R8J08jK-1">
          <mxGeometry x="320" y="545" width="120" height="40" as="geometry" />
        </mxCell>
        <mxCell id="wKr13HxwPm08-R8J08jK-27" style="edgeStyle=orthogonalEdgeStyle;rounded=0;orthogonalLoop=1;jettySize=auto;html=1;entryX=0.5;entryY=0;entryDx=0;entryDy=0;dashed=1;" edge="1" parent="wKr13HxwPm08-R8J08jK-1" source="wKr13HxwPm08-R8J08jK-29" target="wKr13HxwPm08-R8J08jK-8">
          <mxGeometry relative="1" as="geometry" />
        </mxCell>
        <mxCell id="wKr13HxwPm08-R8J08jK-28" value="&amp;lt;&amp;lt;include&amp;gt;&amp;gt;" style="edgeLabel;html=1;align=center;verticalAlign=middle;resizable=0;points=[];" vertex="1" connectable="0" parent="wKr13HxwPm08-R8J08jK-27">
          <mxGeometry x="-0.6939" y="-2" relative="1" as="geometry">
            <mxPoint as="offset" />
          </mxGeometry>
        </mxCell>
        <mxCell id="wKr13HxwPm08-R8J08jK-29" value="&lt;span style=&quot;font-size: 10px;&quot;&gt;manage links&lt;/span&gt;" style="ellipse;whiteSpace=wrap;html=1;" vertex="1" parent="wKr13HxwPm08-R8J08jK-1">
          <mxGeometry x="320" y="95" width="120" height="40" as="geometry" />
        </mxCell>
        <mxCell id="wKr13HxwPm08-R8J08jK-30" style="edgeStyle=orthogonalEdgeStyle;rounded=0;orthogonalLoop=1;jettySize=auto;html=1;entryX=0.5;entryY=1;entryDx=0;entryDy=0;dashed=1;" edge="1" parent="wKr13HxwPm08-R8J08jK-1" source="wKr13HxwPm08-R8J08jK-32" target="wKr13HxwPm08-R8J08jK-2">
          <mxGeometry relative="1" as="geometry" />
        </mxCell>
        <mxCell id="wKr13HxwPm08-R8J08jK-31" value="&amp;lt;&amp;lt;include&amp;gt;" style="edgeLabel;html=1;align=center;verticalAlign=middle;resizable=0;points=[];" vertex="1" connectable="0" parent="wKr13HxwPm08-R8J08jK-30">
          <mxGeometry x="-0.805" y="-1" relative="1" as="geometry">
            <mxPoint as="offset" />
          </mxGeometry>
        </mxCell>
        <mxCell id="wKr13HxwPm08-R8J08jK-32" value="&lt;span style=&quot;font-size: 10px;&quot;&gt;manage profile&lt;/span&gt;" style="ellipse;whiteSpace=wrap;html=1;" vertex="1" parent="wKr13HxwPm08-R8J08jK-1">
          <mxGeometry x="320" y="665" width="120" height="40" as="geometry" />
        </mxCell>
        <mxCell id="wKr13HxwPm08-R8J08jK-33" style="edgeStyle=orthogonalEdgeStyle;rounded=0;orthogonalLoop=1;jettySize=auto;html=1;entryX=0.5;entryY=1;entryDx=0;entryDy=0;dashed=1;" edge="1" parent="wKr13HxwPm08-R8J08jK-1" source="wKr13HxwPm08-R8J08jK-35" target="wKr13HxwPm08-R8J08jK-8">
          <mxGeometry relative="1" as="geometry" />
        </mxCell>
        <mxCell id="wKr13HxwPm08-R8J08jK-34" value="&amp;lt;&amp;lt;include&amp;gt;&amp;gt;" style="edgeLabel;html=1;align=center;verticalAlign=middle;resizable=0;points=[];" vertex="1" connectable="0" parent="wKr13HxwPm08-R8J08jK-33">
          <mxGeometry x="-0.7144" relative="1" as="geometry">
            <mxPoint as="offset" />
          </mxGeometry>
        </mxCell>
        <mxCell id="wKr13HxwPm08-R8J08jK-35" value="&lt;span style=&quot;font-size: 10px;&quot;&gt;manage members&lt;/span&gt;" style="ellipse;whiteSpace=wrap;html=1;" vertex="1" parent="wKr13HxwPm08-R8J08jK-1">
          <mxGeometry x="320" y="485" width="120" height="40" as="geometry" />
        </mxCell>
        <mxCell id="wKr13HxwPm08-R8J08jK-36" style="edgeStyle=orthogonalEdgeStyle;rounded=0;orthogonalLoop=1;jettySize=auto;html=1;entryX=0.5;entryY=1;entryDx=0;entryDy=0;dashed=1;" edge="1" parent="wKr13HxwPm08-R8J08jK-1" source="wKr13HxwPm08-R8J08jK-38" target="wKr13HxwPm08-R8J08jK-8">
          <mxGeometry relative="1" as="geometry" />
        </mxCell>
        <mxCell id="wKr13HxwPm08-R8J08jK-37" value="&amp;lt;&amp;lt;include&amp;gt;&amp;gt;" style="edgeLabel;html=1;align=center;verticalAlign=middle;resizable=0;points=[];" vertex="1" connectable="0" parent="wKr13HxwPm08-R8J08jK-36">
          <mxGeometry x="-0.8196" relative="1" as="geometry">
            <mxPoint as="offset" />
          </mxGeometry>
        </mxCell>
        <mxCell id="wKr13HxwPm08-R8J08jK-38" value="&lt;span style=&quot;font-size: 10px;&quot;&gt;manage &lt;br&gt;web hooks&lt;/span&gt;" style="ellipse;whiteSpace=wrap;html=1;" vertex="1" parent="wKr13HxwPm08-R8J08jK-1">
          <mxGeometry x="320" y="605" width="120" height="40" as="geometry" />
        </mxCell>
        <mxCell id="wKr13HxwPm08-R8J08jK-39" style="edgeStyle=orthogonalEdgeStyle;rounded=0;orthogonalLoop=1;jettySize=auto;html=1;entryX=0;entryY=0.5;entryDx=0;entryDy=0;dashed=1;" edge="1" parent="wKr13HxwPm08-R8J08jK-1" source="wKr13HxwPm08-R8J08jK-41" target="wKr13HxwPm08-R8J08jK-26">
          <mxGeometry relative="1" as="geometry">
            <Array as="points">
              <mxPoint x="280" y="625" />
              <mxPoint x="280" y="565" />
            </Array>
          </mxGeometry>
        </mxCell>
        <mxCell id="wKr13HxwPm08-R8J08jK-40" value="&amp;lt;&amp;lt;include&amp;gt;&amp;gt;" style="edgeLabel;html=1;align=center;verticalAlign=middle;resizable=0;points=[];" vertex="1" connectable="0" parent="wKr13HxwPm08-R8J08jK-39">
          <mxGeometry x="-0.119" relative="1" as="geometry">
            <mxPoint x="-44" as="offset" />
          </mxGeometry>
        </mxCell>
        <mxCell id="wKr13HxwPm08-R8J08jK-41" value="&lt;span style=&quot;font-size: 10px;&quot;&gt;manage&lt;br&gt;applications&lt;/span&gt;" style="ellipse;whiteSpace=wrap;html=1;" vertex="1" parent="wKr13HxwPm08-R8J08jK-1">
          <mxGeometry x="70" y="605" width="120" height="40" as="geometry" />
        </mxCell>
        <mxCell id="wKr13HxwPm08-R8J08jK-42" style="edgeStyle=orthogonalEdgeStyle;rounded=0;orthogonalLoop=1;jettySize=auto;html=1;entryX=0;entryY=0.5;entryDx=0;entryDy=0;dashed=1;" edge="1" parent="wKr13HxwPm08-R8J08jK-1" source="wKr13HxwPm08-R8J08jK-44" target="wKr13HxwPm08-R8J08jK-26">
          <mxGeometry relative="1" as="geometry">
            <Array as="points">
              <mxPoint x="280" y="505" />
              <mxPoint x="280" y="565" />
            </Array>
          </mxGeometry>
        </mxCell>
        <mxCell id="wKr13HxwPm08-R8J08jK-43" value="&amp;lt;&amp;lt;include&amp;gt;&amp;gt;" style="edgeLabel;html=1;align=center;verticalAlign=middle;resizable=0;points=[];" vertex="1" connectable="0" parent="wKr13HxwPm08-R8J08jK-42">
          <mxGeometry x="-0.0732" y="2" relative="1" as="geometry">
            <mxPoint x="-48" y="2" as="offset" />
          </mxGeometry>
        </mxCell>
        <mxCell id="wKr13HxwPm08-R8J08jK-44" value="&lt;span style=&quot;font-size: 10px;&quot;&gt;expose &lt;br&gt;api endpoints&lt;/span&gt;" style="ellipse;whiteSpace=wrap;html=1;" vertex="1" parent="wKr13HxwPm08-R8J08jK-1">
          <mxGeometry x="70" y="485" width="120" height="40" as="geometry" />
        </mxCell>
        <mxCell id="wKr13HxwPm08-R8J08jK-45" style="edgeStyle=orthogonalEdgeStyle;rounded=0;orthogonalLoop=1;jettySize=auto;html=1;entryX=0.5;entryY=1;entryDx=0;entryDy=0;dashed=1;" edge="1" parent="wKr13HxwPm08-R8J08jK-1" source="wKr13HxwPm08-R8J08jK-47" target="wKr13HxwPm08-R8J08jK-2">
          <mxGeometry relative="1" as="geometry" />
        </mxCell>
        <mxCell id="wKr13HxwPm08-R8J08jK-46" value="Text" style="edgeLabel;html=1;align=center;verticalAlign=middle;resizable=0;points=[];" vertex="1" connectable="0" parent="wKr13HxwPm08-R8J08jK-45">
          <mxGeometry x="-0.8908" relative="1" as="geometry">
            <mxPoint as="offset" />
          </mxGeometry>
        </mxCell>
        <mxCell id="wKr13HxwPm08-R8J08jK-47" value="&lt;span style=&quot;font-size: 10px;&quot;&gt;users management&lt;/span&gt;" style="ellipse;whiteSpace=wrap;html=1;" vertex="1" parent="wKr13HxwPm08-R8J08jK-1">
          <mxGeometry x="320" y="725" width="120" height="40" as="geometry" />
        </mxCell>
        <mxCell id="wKr13HxwPm08-R8J08jK-48" style="edgeStyle=orthogonalEdgeStyle;rounded=0;orthogonalLoop=1;jettySize=auto;html=1;entryX=0.5;entryY=1;entryDx=0;entryDy=0;dashed=1;" edge="1" parent="wKr13HxwPm08-R8J08jK-1" source="wKr13HxwPm08-R8J08jK-50" target="wKr13HxwPm08-R8J08jK-2">
          <mxGeometry relative="1" as="geometry" />
        </mxCell>
        <mxCell id="wKr13HxwPm08-R8J08jK-49" value="&amp;lt;&amp;lt;include&amp;gt;&amp;gt;" style="edgeLabel;html=1;align=center;verticalAlign=middle;resizable=0;points=[];" vertex="1" connectable="0" parent="wKr13HxwPm08-R8J08jK-48">
          <mxGeometry x="-0.6213" y="1" relative="1" as="geometry">
            <mxPoint as="offset" />
          </mxGeometry>
        </mxCell>
        <mxCell id="wKr13HxwPm08-R8J08jK-50" value="&lt;span style=&quot;font-size: 10px;&quot;&gt;App settings&lt;br&gt;management&lt;/span&gt;" style="ellipse;whiteSpace=wrap;html=1;" vertex="1" parent="wKr13HxwPm08-R8J08jK-1">
          <mxGeometry x="320" y="780" width="120" height="40" as="geometry" />
        </mxCell>
        <mxCell id="wKr13HxwPm08-R8J08jK-51" style="edgeStyle=orthogonalEdgeStyle;rounded=0;orthogonalLoop=1;jettySize=auto;html=1;entryX=0.5;entryY=0;entryDx=0;entryDy=0;endArrow=none;endFill=0;" edge="1" parent="1" source="wKr13HxwPm08-R8J08jK-64" target="wKr13HxwPm08-R8J08jK-8">
          <mxGeometry relative="1" as="geometry">
            <Array as="points">
              <mxPoint x="-1065" y="180" />
              <mxPoint x="-310" y="180" />
            </Array>
          </mxGeometry>
        </mxCell>
        <mxCell id="wKr13HxwPm08-R8J08jK-52" style="edgeStyle=orthogonalEdgeStyle;rounded=0;orthogonalLoop=1;jettySize=auto;html=1;entryX=0;entryY=0.5;entryDx=0;entryDy=0;endArrow=none;endFill=0;" edge="1" parent="1" source="wKr13HxwPm08-R8J08jK-64" target="wKr13HxwPm08-R8J08jK-29">
          <mxGeometry relative="1" as="geometry" />
        </mxCell>
        <mxCell id="wKr13HxwPm08-R8J08jK-53" style="edgeStyle=orthogonalEdgeStyle;rounded=0;orthogonalLoop=1;jettySize=auto;html=1;entryX=0;entryY=0.5;entryDx=0;entryDy=0;endArrow=none;endFill=0;" edge="1" parent="1" source="wKr13HxwPm08-R8J08jK-64" target="wKr13HxwPm08-R8J08jK-11">
          <mxGeometry relative="1" as="geometry" />
        </mxCell>
        <mxCell id="wKr13HxwPm08-R8J08jK-54" style="edgeStyle=orthogonalEdgeStyle;rounded=0;orthogonalLoop=1;jettySize=auto;html=1;entryX=0;entryY=0.5;entryDx=0;entryDy=0;endArrow=none;endFill=0;" edge="1" parent="1" source="wKr13HxwPm08-R8J08jK-64" target="wKr13HxwPm08-R8J08jK-17">
          <mxGeometry relative="1" as="geometry" />
        </mxCell>
        <mxCell id="wKr13HxwPm08-R8J08jK-55" style="edgeStyle=orthogonalEdgeStyle;rounded=0;orthogonalLoop=1;jettySize=auto;html=1;entryX=0;entryY=0.5;entryDx=0;entryDy=0;endArrow=none;endFill=0;" edge="1" parent="1" source="wKr13HxwPm08-R8J08jK-64" target="wKr13HxwPm08-R8J08jK-20">
          <mxGeometry relative="1" as="geometry" />
        </mxCell>
        <mxCell id="wKr13HxwPm08-R8J08jK-56" style="edgeStyle=orthogonalEdgeStyle;rounded=0;orthogonalLoop=1;jettySize=auto;html=1;entryX=0;entryY=0.5;entryDx=0;entryDy=0;endArrow=none;endFill=0;" edge="1" parent="1" source="wKr13HxwPm08-R8J08jK-64" target="wKr13HxwPm08-R8J08jK-14">
          <mxGeometry relative="1" as="geometry" />
        </mxCell>
        <mxCell id="wKr13HxwPm08-R8J08jK-57" style="edgeStyle=orthogonalEdgeStyle;rounded=0;orthogonalLoop=1;jettySize=auto;html=1;entryX=0;entryY=0.5;entryDx=0;entryDy=0;endArrow=none;endFill=0;" edge="1" parent="1" source="wKr13HxwPm08-R8J08jK-64" target="wKr13HxwPm08-R8J08jK-23">
          <mxGeometry relative="1" as="geometry" />
        </mxCell>
        <mxCell id="wKr13HxwPm08-R8J08jK-58" style="edgeStyle=orthogonalEdgeStyle;rounded=0;orthogonalLoop=1;jettySize=auto;html=1;entryX=0;entryY=0.5;entryDx=0;entryDy=0;endArrow=none;endFill=0;" edge="1" parent="1" source="wKr13HxwPm08-R8J08jK-64" target="wKr13HxwPm08-R8J08jK-35">
          <mxGeometry relative="1" as="geometry">
            <Array as="points">
              <mxPoint x="-710" y="325" />
              <mxPoint x="-710" y="580" />
              <mxPoint x="-650" y="580" />
              <mxPoint x="-650" y="625" />
            </Array>
          </mxGeometry>
        </mxCell>
        <mxCell id="wKr13HxwPm08-R8J08jK-59" style="edgeStyle=orthogonalEdgeStyle;rounded=0;orthogonalLoop=1;jettySize=auto;html=1;entryX=0;entryY=0.5;entryDx=0;entryDy=0;endArrow=none;endFill=0;" edge="1" parent="1" source="wKr13HxwPm08-R8J08jK-64" target="wKr13HxwPm08-R8J08jK-26">
          <mxGeometry relative="1" as="geometry">
            <Array as="points">
              <mxPoint x="-840" y="325" />
              <mxPoint x="-840" y="580" />
              <mxPoint x="-650" y="580" />
              <mxPoint x="-650" y="685" />
            </Array>
          </mxGeometry>
        </mxCell>
        <mxCell id="wKr13HxwPm08-R8J08jK-60" style="edgeStyle=orthogonalEdgeStyle;rounded=0;orthogonalLoop=1;jettySize=auto;html=1;entryX=0;entryY=0.5;entryDx=0;entryDy=0;endArrow=none;endFill=0;" edge="1" parent="1" source="wKr13HxwPm08-R8J08jK-64" target="wKr13HxwPm08-R8J08jK-44">
          <mxGeometry relative="1" as="geometry">
            <Array as="points">
              <mxPoint x="-910" y="325" />
              <mxPoint x="-910" y="625" />
            </Array>
          </mxGeometry>
        </mxCell>
        <mxCell id="wKr13HxwPm08-R8J08jK-61" style="edgeStyle=orthogonalEdgeStyle;rounded=0;orthogonalLoop=1;jettySize=auto;html=1;entryX=0;entryY=0.5;entryDx=0;entryDy=0;endArrow=none;endFill=0;" edge="1" parent="1" source="wKr13HxwPm08-R8J08jK-64" target="wKr13HxwPm08-R8J08jK-41">
          <mxGeometry relative="1" as="geometry">
            <Array as="points">
              <mxPoint x="-910" y="325" />
              <mxPoint x="-910" y="745" />
            </Array>
          </mxGeometry>
        </mxCell>
        <mxCell id="wKr13HxwPm08-R8J08jK-62" style="edgeStyle=orthogonalEdgeStyle;rounded=0;orthogonalLoop=1;jettySize=auto;html=1;entryX=0;entryY=0.5;entryDx=0;entryDy=0;endArrow=none;endFill=0;" edge="1" parent="1" source="wKr13HxwPm08-R8J08jK-64" target="wKr13HxwPm08-R8J08jK-38">
          <mxGeometry relative="1" as="geometry">
            <Array as="points">
              <mxPoint x="-840" y="325" />
              <mxPoint x="-840" y="580" />
              <mxPoint x="-650" y="580" />
              <mxPoint x="-650" y="745" />
            </Array>
          </mxGeometry>
        </mxCell>
        <mxCell id="wKr13HxwPm08-R8J08jK-63" style="edgeStyle=orthogonalEdgeStyle;rounded=0;orthogonalLoop=1;jettySize=auto;html=1;entryX=0;entryY=0.5;entryDx=0;entryDy=0;endArrow=none;endFill=0;" edge="1" parent="1" source="wKr13HxwPm08-R8J08jK-64" target="wKr13HxwPm08-R8J08jK-32">
          <mxGeometry relative="1" as="geometry">
            <Array as="points">
              <mxPoint x="-930" y="325" />
              <mxPoint x="-930" y="805" />
            </Array>
          </mxGeometry>
        </mxCell>
        <mxCell id="wKr13HxwPm08-R8J08jK-64" value="Member" style="shape=umlActor;verticalLabelPosition=bottom;verticalAlign=top;html=1;outlineConnect=0;" vertex="1" parent="1">
          <mxGeometry x="-1080" y="295" width="30" height="60" as="geometry" />
        </mxCell>
        <mxCell id="wKr13HxwPm08-R8J08jK-65" style="edgeStyle=orthogonalEdgeStyle;rounded=0;orthogonalLoop=1;jettySize=auto;html=1;entryX=0;entryY=0.5;entryDx=0;entryDy=0;endArrow=none;endFill=0;fillColor=#f8cecc;strokeColor=#b85450;" edge="1" parent="1" source="wKr13HxwPm08-R8J08jK-68" target="wKr13HxwPm08-R8J08jK-47">
          <mxGeometry relative="1" as="geometry">
            <Array as="points">
              <mxPoint x="-940" y="470" />
              <mxPoint x="-940" y="865" />
            </Array>
          </mxGeometry>
        </mxCell>
        <mxCell id="wKr13HxwPm08-R8J08jK-66" style="edgeStyle=orthogonalEdgeStyle;rounded=0;orthogonalLoop=1;jettySize=auto;html=1;endArrow=block;endFill=0;" edge="1" parent="1" source="wKr13HxwPm08-R8J08jK-68" target="wKr13HxwPm08-R8J08jK-64">
          <mxGeometry relative="1" as="geometry" />
        </mxCell>
        <mxCell id="wKr13HxwPm08-R8J08jK-67" style="edgeStyle=orthogonalEdgeStyle;rounded=0;orthogonalLoop=1;jettySize=auto;html=1;entryX=0;entryY=0.5;entryDx=0;entryDy=0;fillColor=#f8cecc;strokeColor=#b85450;endArrow=none;endFill=0;" edge="1" parent="1" source="wKr13HxwPm08-R8J08jK-68" target="wKr13HxwPm08-R8J08jK-50">
          <mxGeometry relative="1" as="geometry">
            <Array as="points">
              <mxPoint x="-940" y="470" />
              <mxPoint x="-940" y="920" />
            </Array>
          </mxGeometry>
        </mxCell>
        <mxCell id="wKr13HxwPm08-R8J08jK-68" value="Admin" style="shape=umlActor;verticalLabelPosition=bottom;verticalAlign=top;html=1;outlineConnect=0;" vertex="1" parent="1">
          <mxGeometry x="-1080" y="440" width="30" height="60" as="geometry" />
        </mxCell>
        <mxCell id="wKr13HxwPm08-R8J08jK-69" value="Google" style="shape=umlActor;verticalLabelPosition=bottom;verticalAlign=top;html=1;outlineConnect=0;" vertex="1" parent="1">
          <mxGeometry x="360" y="290" width="30" height="60" as="geometry" />
        </mxCell>
        <mxCell id="wKr13HxwPm08-R8J08jK-70" style="edgeStyle=orthogonalEdgeStyle;rounded=0;orthogonalLoop=1;jettySize=auto;html=1;entryX=0;entryY=0.3333333333333333;entryDx=0;entryDy=0;entryPerimeter=0;" edge="1" parent="1" source="wKr13HxwPm08-R8J08jK-2" target="wKr13HxwPm08-R8J08jK-69">
          <mxGeometry relative="1" as="geometry">
            <Array as="points">
              <mxPoint x="-100" y="310" />
            </Array>
          </mxGeometry>
        </mxCell>
        <mxCell id="wKr13HxwPm08-R8J08jK-71" value="Github" style="shape=umlActor;verticalLabelPosition=bottom;verticalAlign=top;html=1;outlineConnect=0;" vertex="1" parent="1">
          <mxGeometry x="360" y="490" width="30" height="60" as="geometry" />
        </mxCell>
        <mxCell id="wKr13HxwPm08-R8J08jK-72" style="edgeStyle=orthogonalEdgeStyle;rounded=0;orthogonalLoop=1;jettySize=auto;html=1;" edge="1" parent="1" source="wKr13HxwPm08-R8J08jK-2" target="wKr13HxwPm08-R8J08jK-71">
          <mxGeometry relative="1" as="geometry">
            <Array as="points">
              <mxPoint x="-100" y="510" />
              <mxPoint x="375" y="510" />
            </Array>
          </mxGeometry>
        </mxCell>
      </root>
    </mxGraphModel>
  </diagram>
</mxfile>
